{
	"asset":{
		"generator":"Khronos glTF Blender I/O v5.1.18",
		"version":"2.0"
	},
	"extensionsUsed":[
		"KHR_materials_specular"
	],
	"scene":0,
	"scenes":[
		{
			"name":"Scene",
			"nodes":[
				0,
				1
			]
		}
	],
	"nodes":[
		{
			"mesh":0,
			"name":"Cube"
		},
		{
			"mesh":1,
			"name":"Starship_updated",
			"rotation":[
				0.7071068286895752,
				0,
				0,
				0.7071068286895752
			]
		}
	],
	"materials":[
		{
			"doubleSided":true,
			"name":"Material",
			"pbrMetallicRoughness":{
				"baseColorFactor":[
					0.800000011920929,
					0.800000011920929,
					0.800000011920929,
					1
				],
				"metallicFactor":0,
				"roughnessFactor":0.5
			}
		},
		{
			"doubleSided":true,
			"extensions":{
				"KHR_materials_specular":{
					"specularFactor":0
				}
			},
			"name":"Mirror",
			"pbrMetallicRoughness":{
				"baseColorFactor":[
					0.9607840180397034,
					0.9607840180397034,
					0.9647060036659241,
					1
				],
				"metallicFactor":0
			}
		},
		{
			"doubleSided":true,
			"extensions":{
				"KHR_materials_specular":{
					"specularFactor":0
				}
			},
			"name":"Plastic_-_Glossy_(Black)",
			"pbrMetallicRoughness":{
				"baseColorFactor":[
					0.09803900122642517,
					0.09803900122642517,
					0.09803900122642517,
					1
				],
				"metallicFactor":0
			}
		},
		{
			"doubleSided":true,
			"extensions":{
				"KHR_materials_specular":{
					"specularFactor":0
				}
			},
			"name":"Steel_-_Satin",
			"pbrMetallicRoughness":{
				"baseColorFactor":[
					0.6274510025978088,
					0.6274510025978088,
					0.6274510025978088,
					1
				],
				"metallicFactor":0
			}
		},
		{
			"doubleSided":true,
			"extensions":{
				"KHR_materials_specular":{
					"specularFactor":0
				}
			},
			"name":"Plastic_-_Matte_(Black)",
			"pbrMetallicRoughness":{
				"baseColorFactor":[
					0.09803900122642517,
					0.09803900122642517,
					0.09803900122642517,
					1
				],
				"metallicFactor":0
			}
		}
	],
	"meshes":[
		{
			"name":"Cube",
			"primitives":[
				{
					"attributes":{
						"POSITION":0,
						"NORMAL":1,
						"TEXCOORD_0":2
					},
					"indices":3,
					"material":0
				}
			]
		},
		{
			"name":"Starship_updated",
			"primitives":[
				{
					"attributes":{
						"POSITION":4,
						"NORMAL":5,
						"TEXCOORD_0":6
					},
					"indices":7,
					"material":1
				},
				{
					"attributes":{
						"POSITION":8,
						"NORMAL":9,
						"TEXCOORD_0":10
					},
					"indices":11,
					"material":2
				},
				{
					"attributes":{
						"POSITION":12,
						"NORMAL":13,
						"TEXCOORD_0":14
					},
					"indices":15,
					"material":3
				},
				{
					"attributes":{
						"POSITION":16,
						"NORMAL":17,
						"TEXCOORD_0":18
					},
					"indices":19,
					"material":4
				}
			]
		}
	],
	"accessors":[
		{
			"bufferView":0,
			"componentType":5126,
			"count":24,
			"max":[
				1,
				1,
				1
			],
			"min":[
				-1,
				-1,
				-1
			],
			"type":"VEC3"
		},
		{
			"bufferView":1,
			"componentType":5126,
			"count":24,
			"type":"VEC3"
		},
		{
			"bufferView":2,
			"componentType":5126,
			"count":24,
			"type":"VEC2"
		},
		{
			"bufferView":3,
			"componentType":5123,
			"count":36,
			"type":"SCALAR"
		},
		{
			"bufferView":4,
			"componentType":5126,
			"count":282713,
			"max":[
				939,
				448.5662841796875,
				-299.90814208984375
			],
			"min":[
				-939,
				-451.4337158203125,
				-5455.365234375
			],
			"type":"VEC3"
		},
		{
			"bufferView":5,
			"componentType":5126,
			"count":282713,
			"type":"VEC3"
		},
		{
			"bufferView":6,
			"componentType":5126,
			"count":282713,
			"type":"VEC2"
		},
		{
			"bufferView":7,
			"componentType":5125,
			"count":1547427,
			"type":"SCALAR"
		},
		{
			"bufferView":8,
			"componentType":5126,
			"count":3468,
			"max":[
				409.7854309082031,
				-153.02691650390625,
				-3855
			],
			"min":[
				-409.7854309082031,
				-448.5660095214844,
				-4717.5
			],
			"type":"VEC3"
		},
		{
			"bufferView":9,
			"componentType":5126,
			"count":3468,
			"type":"VEC3"
		},
		{
			"bufferView":10,
			"componentType":5126,
			"count":3468,
			"type":"VEC2"
		},
		{
			"bufferView":11,
			"componentType":5123,
			"count":17094,
			"type":"SCALAR"
		},
		{
			"bufferView":12,
			"componentType":5126,
			"count":5447,
			"max":[
				379.99609375,
				379.99609375,
				-300.0081481933594
			],
			"min":[
				-379.99609375,
				-379.99609375,
				-550
			],
			"type":"VEC3"
		},
		{
			"bufferView":13,
			"componentType":5126,
			"count":5447,
			"type":"VEC3"
		},
		{
			"bufferView":14,
			"componentType":5126,
			"count":5447,
			"type":"VEC2"
		},
		{
			"bufferView":15,
			"componentType":5123,
			"count":31455,
			"type":"SCALAR"
		},
		{
			"bufferView":16,
			"componentType":5126,
			"count":3761,
			"max":[
				267.50115966796875,
				-105.49061584472656,
				-4901.1435546875
			],
			"min":[
				-268.50115966796875,
				-309.5669860839844,
				-5333.2900390625
			],
			"type":"VEC3"
		},
		{
			"bufferView":17,
			"componentType":5126,
			"count":3761,
			"type":"VEC3"
		},
		{
			"bufferView":18,
			"componentType":5126,
			"count":3761,
			"type":"VEC2"
		},
		{
			"bufferView":19,
			"componentType":5123,
			"count":17337,
			"type":"SCALAR"
		}
	],
	"bufferViews":[
		{
			"buffer":0,
			"byteLength":288,
			"byteOffset":0,
			"target":34962
		},
		{
			"buffer":0,
			"byteLength":288,
			"byteOffset":288,
			"target":34962
		},
		{
			"buffer":0,
			"byteLength":192,
			"byteOffset":576,
			"target":34962
		},
		{
			"buffer":0,
			"byteLength":72,
			"byteOffset":768,
			"target":34963
		},
		{
			"buffer":0,
			"byteLength":3392556,
			"byteOffset":840,
			"target":34962
		},
		{
			"buffer":0,
			"byteLength":3392556,
			"byteOffset":3393396,
			"target":34962
		},
		{
			"buffer":0,
			"byteLength":2261704,
			"byteOffset":6785952,
			"target":34962
		},
		{
			"buffer":0,
			"byteLength":6189708,
			"byteOffset":9047656,
			"target":34963
		},
		{
			"buffer":0,
			"byteLength":41616,
			"byteOffset":15237364,
			"target":34962
		},
		{
			"buffer":0,
			"byteLength":41616,
			"byteOffset":15278980,
			"target":34962
		},
		{
			"buffer":0,
			"byteLength":27744,
			"byteOffset":15320596,
			"target":34962
		},
		{
			"buffer":0,
			"byteLength":34188,
			"byteOffset":15348340,
			"target":34963
		},
		{
			"buffer":0,
			"byteLength":65364,
			"byteOffset":15382528,
			"target":34962
		},
		{
			"buffer":0,
			"byteLength":65364,
			"byteOffset":15447892,
			"target":34962
		},
		{
			"buffer":0,
			"byteLength":43576,
			"byteOffset":15513256,
			"target":34962
		},
		{
			"buffer":0,
			"byteLength":62910,
			"byteOffset":15556832,
			"target":34963
		},
		{
			"buffer":0,
			"byteLength":45132,
			"byteOffset":15619744,
			"target":34962
		},
		{
			"buffer":0,
			"byteLength":45132,
			"byteOffset":15664876,
			"target":34962
		},
		{
			"buffer":0,
			"byteLength":30088,
			"byteOffset":15710008,
			"target":34962
		},
		{
			"buffer":0,
			"byteLength":34674,
			"byteOffset":15740096,
			"target":34963
		}
	],
	"buffers":[
		{
			"byteLength":15774772,
			"uri":"Starship_updated_separate.bin"
		}
	]
}
